<svg xmlns="http://www.w3.org/2000/svg" xmlns:xlink="http://www.w3.org/1999/xlink" width="36" height="36" viewBox="0 0 36 36">
  <defs>
    <filter id="Rectangle_27" x="0" y="0" width="36" height="36" filterUnits="userSpaceOnUse">
      <feOffset dy="3" input="SourceAlpha"/>
      <feGaussianBlur stdDeviation="3" result="blur"/>
      <feFlood flood-opacity="0.161"/>
      <feComposite operator="in" in2="blur"/>
      <feComposite in="SourceGraphic"/>
    </filter>
  </defs>
  <g id="Group_79" data-name="Group 79" transform="translate(8.916 6)">
    <g transform="matrix(1, 0, 0, 1, -8.92, -6)" filter="url(#Rectangle_27)">
      <g id="Rectangle_27-2" data-name="Rectangle 27" transform="translate(9 6)" fill="none" stroke="rgba(213,213,213,0.77)" stroke-width="1">
        <rect width="18" height="18" rx="5" stroke="none"/>
        <rect x="0.5" y="0.5" width="17" height="17" rx="4.5" fill="none"/>
      </g>
    </g>
    <path id="telegram" d="M3.489,6.883,3.342,8.952a.514.514,0,0,0,.411-.2l.987-.943,2.044,1.5c.375.209.639.1.74-.345L8.866,2.674h0c.119-.554-.2-.771-.566-.635L.413,5.059c-.538.209-.53.509-.092.645l2.017.627L7.022,3.4c.22-.146.421-.065.256.081Z" transform="translate(4.134 3.123)" fill="none" stroke="rgba(213,213,213,0.77)" stroke-width="1"/>
  </g>
</svg>
